<svg version="1.0" xmlns="http://www.w3.org/2000/svg" width="269.333" height="269.333" viewBox="0 0 202 202"><path d="M82.3 2.1C52.8 8.6 29.1 31 23.5 57.6c-2.1 9.9-2.1 76.9 0 86.8 5 23.6 23.6 43.6 48.7 52.4 22.3 7.9 47.3 6.5 67.7-3.7 20.2-10.2 33.9-26.5 39.1-46.5 1.6-6.3 1.9-11.6 1.9-45.1.1-34.7 0-38.7-1.8-45.7-7-27.2-30-47.9-60.5-54.2-9.6-2-26.2-1.8-36.3.5zm15.8 1.6v45.1l-.1 3.3-2.3-2.3C92.8 47 67.3 22.9 61.9 17.9l-4-3.7 3.3-1.9c7.1-4.1 18.5-8 26.3-8.9 2.7-.4 5.2-.8 5.4-1 .2-.2 1.5-.4 2.8-.4 1.5 0 2.3.6 2.4 1.7zm23.4.8c7 1.8 15.7 5.1 20.2 7.8l3.2 1.8-15.1 13.2c-8.4 7.3-18.1 15.8-21.7 18.9-3.6 3.1-6.8 5.5-7.1 5.3-.3-.2-.5-11.1-.5-24.2.1-15.4-.3-24.1-1-24.6-1.6-1.3 15.3.1 22 1.8zM59.9 19.1c3.4 3 12.4 11.5 30.6 28.8l8 7.6v13.7c.1 7.6-.2 13.8-.5 13.8-.6 0-11.5-9.5-16.6-14.5-1.1-1.1-4.9-4.7-8.5-8-21.9-20.2-27.5-25.3-30-27.4-3.4-2.8-3.5-3.1-1.1-5.8 2.5-3 12.5-11.3 13.6-11.3.4 0 2.5 1.4 4.5 3.1zm91.5-.7c3.8 2.9 8.7 7.5 10.4 9.8 1.5 1.8.8 2.5-15.3 16.3-7.8 6.7-12 10.4-15.4 13.5-.9.8-4.6 4-8.1 7-3.6 3-7.4 6.4-8.6 7.5-4.5 4.3-12.8 11-13.3 10.7-.4-.2-.5-14.7-.2-25.9.1-1.5 5.2-6.6 17.5-17.2 9.5-8.2 18-15.6 18.7-16.3 4.4-4.1 9.1-7.8 10.1-7.8.6 0 2.5 1.1 4.2 2.4zM42.5 35.6c2.2 2 6.5 6 9.5 8.8 20.5 19 40.2 37 43.5 39.9l3 2.5v14.1c.1 7.8-.2 14.1-.5 14.1s-2.1-1.5-4.1-3.3C92 110 82.6 101.3 73 92.6c-9.6-8.8-20-18.2-23-21-3.1-2.8-9.3-8.5-13.8-12.6S28 51 28 50.2C28 47.9 36.7 32 38 32c.3 0 2.3 1.6 4.5 3.6zm125.6.7c5 8 9.7 18.9 8 18.4-.5-.1-2.8 1.4-5.2 3.4-12.1 10-30.4 25.1-48.6 40.2-11.1 9.3-20.5 16.7-20.9 16.5-.4-.2-.7-6.4-.7-13.8l.2-13.5 5.4-5c3-2.7 6.7-6.1 8.3-7.4 4.7-3.9 23.6-20.3 27.4-23.7C154.5 40.2 164.2 32 164.8 32c.4 0 1.9 1.9 3.3 4.3zM33.4 59.5c1.2 1.1 13.8 12.6 28 25.5 14.3 12.9 28.5 26 31.6 29l5.7 5.5-.3 13.5c-.1 7.4-.2 13.7-.3 13.9 0 .2-4.5-3.6-9.8-8.5-5.4-4.9-11.8-10.7-14.2-12.9-2.5-2.2-5.2-4.7-6.1-5.5-.9-.8-6.5-6-12.5-11.5C49.4 103 44.3 98.3 44 98c-.3-.3-4.9-4.5-10.4-9.5l-9.8-8.9.5-10.1c.3-5.5 1-11.3 1.6-12.9 1.3-3.2 1.1-3.2 7.5 2.9zm144.4-.7c.2.9.6 6.6.9 12.7l.5 11-4.4 4c-3.7 3.4-20.5 18.1-28.8 25.1-1.4 1.2-6.8 5.9-12 10.5-5.3 4.6-12.4 10.9-16 13.9-6.7 5.7-14.5 12.6-16.8 14.7-.7.7-3.3 1.3-5.8 1.4-6.4.1-23 .1-26.1-.1-1.8 0-4.5-1.6-7.3-4.1-5.3-4.9-7.2-6.5-21.5-18.9-6.1-5.2-12.2-10.6-13.8-12l-2.8-2.6.3-15.6.3-15.7 4.5 4.2c7.7 7.1 22.4 20.4 25 22.7 1.3 1.1 5.2 4.7 8.5 7.8 3.4 3.1 8.3 7.7 11.1 10.1 2.7 2.4 9.5 8.6 15.1 13.8 5.6 5.2 10.6 9.2 11.1 8.9.5-.3.9-7.5.9-16l.1-15.5 2.8-2.4c1.6-1.3 10.1-8.4 19-15.8 8.8-7.4 17.8-14.9 20-16.6 2.2-1.8 5.6-4.6 7.5-6.2 12.9-10.9 26.5-21.8 26.8-21.5.3.3.7 1.2.9 2.2zm-1.5 58.2c-1.6 1.4-6 5.2-9.8 8.5-3.8 3.3-9 7.8-11.5 10.1-2.5 2.2-7.9 6.9-12 10.5l-7.5 6.4-15.3-.1c-8.4-.1-15.5-.3-15.8-.6-.2-.3 6.2-6.3 14.3-13.4 8.2-7.1 15.3-13.3 15.9-13.9.6-.5 3.9-3.5 7.4-6.5 3.5-3 6.8-6 7.4-6.5.6-.6 4.3-3.7 8.1-7 8.8-7.6 13-11.2 17.4-15.2l3.6-3.2.3 14.2.3 14.2-2.8 2.5zM35.5 127.6c4.4 3.8 9.3 8.1 11 9.6 4.8 4.3 7.7 6.8 12.3 10.6 2.3 1.9 4.2 3.8 4.2 4.1 0 .9-34.2.3-35.1-.6-1.7-1.7-3.6-13.4-3.8-23.3-.2-10-.1-10.4 1.6-8.9 1 .8 5.4 4.6 9.8 8.5zm143.4.6c-.2 9.9-2.1 21.4-3.9 23.2-.9.9-33.6 1.3-34.5.5-.2-.3 4.8-5.1 11.3-10.6 6.4-5.6 15.1-13.1 19.2-16.7 4.1-3.6 7.6-6.6 7.8-6.6.2 0 .2 4.6.1 10.2zm-5.1 26.7c.8.3-6.3 12.3-9.9 16.6l-3.9 4.8-54.3-.1c-29.8 0-56.2-.1-58.7-.2-4.1-.1-4.8-.5-8-4.5-3.2-4.1-10-15.3-10-16.5 0-.5 143.7-.6 144.8-.1zm-20 26.7c-6.9 6.3-19.9 12.7-32.8 16.1-9.1 2.4-30 2.4-39.5-.1-9.8-2.6-17.9-6.1-25.5-11.1-13.2-8.8-17.3-8 45.6-8h55.6l-3.4 3.1z"/></svg>