<svg width="56" height="56" fill="none" xmlns="http://www.w3.org/2000/svg"><path d="M0 28C0 12.536 12.536 0 28 0s28 12.536 28 28-12.536 28-28 28S0 43.464 0 28z" fill="#274C5B"/><path d="M25.778 39a1.222 1.222 0 100-2.444 1.222 1.222 0 000 2.444zm8.556 0a1.222 1.222 0 100-2.444 1.222 1.222 0 000 2.444z" fill="#fff" stroke="#fff" stroke-width="1.5" stroke-linecap="round" stroke-linejoin="round"/><path d="M16 17h3.782l2.836 16.073h15.128" stroke="#fff" stroke-width="2" stroke-linecap="round" stroke-linejoin="round"/><path d="M22.111 29.184l15.247.107a.473.473 0 00.464-.38l1.702-8.51a.472.472 0 00-.464-.565H20.567" stroke="#fff" stroke-width="2" stroke-linecap="round" stroke-linejoin="round"/></svg>