<svg width="20" height="19" fill="none" xmlns="http://www.w3.org/2000/svg"><path d="M13.659 1.547a4.109 4.109 0 012.837 1.137 3.81 3.81 0 011.18 2.732v7.737a3.81 3.81 0 01-1.18 2.732 4.109 4.109 0 01-2.837 1.136H5.623a4.11 4.11 0 01-2.837-1.136 3.81 3.81 0 01-1.18-2.732V5.416a3.81 3.81 0 011.18-2.732 4.11 4.11 0 012.837-1.137h8.035zm0-1.547H5.623C2.531 0 0 2.437 0 5.416v7.737c0 2.978 2.53 5.416 5.624 5.416h8.035c3.093 0 5.624-2.438 5.624-5.416V5.416C19.283 2.437 16.752 0 13.658 0z" fill="#274C5B"/><path d="M14.863 5.417a1.24 1.24 0 01-.67-.196 1.171 1.171 0 01-.443-.52 1.12 1.12 0 01-.069-.671c.047-.225.162-.432.33-.594a1.22 1.22 0 01.617-.318c.234-.045.476-.022.697.066.22.088.408.237.54.427a1.13 1.13 0 01-.149 1.467 1.243 1.243 0 01-.853.34zm-5.222.773c.636 0 1.257.182 1.786.522.528.34.94.823 1.183 1.389.244.565.307 1.188.183 1.788-.124.6-.43 1.152-.88 1.585a3.254 3.254 0 01-1.645.847 3.33 3.33 0 01-1.857-.176 3.192 3.192 0 01-1.442-1.14 3.014 3.014 0 01-.542-1.72c.001-.82.34-1.607.942-2.187a3.281 3.281 0 012.272-.908zm0-1.547c-.953 0-1.885.272-2.678.782A4.685 4.685 0 005.187 7.51a4.483 4.483 0 00-.274 2.682c.186.9.645 1.727 1.32 2.377a4.88 4.88 0 002.468 1.27c.935.18 1.904.087 2.785-.264a4.786 4.786 0 002.163-1.71 4.52 4.52 0 00.813-2.579 4.557 4.557 0 00-1.412-3.282 4.916 4.916 0 00-3.409-1.36z" fill="#274C5B"/></svg>