<svg width="21" height="17" fill="none" xmlns="http://www.w3.org/2000/svg"><g clip-path="url(#clip0_1_474)"><path d="M20.66 1.958a8.686 8.686 0 01-2.434.659A4.197 4.197 0 0020.091.31a8.511 8.511 0 01-2.693 1.011A4.266 4.266 0 0014.303 0c-2.342 0-4.238 1.868-4.238 4.17-.001.321.035.64.11.952A12.082 12.082 0 011.437.762a4.119 4.119 0 00-.576 2.096 4.16 4.16 0 001.894 3.473 4.197 4.197 0 01-1.928-.52v.051c0 2.023 1.464 3.706 3.4 4.09a4.34 4.34 0 01-1.116.146 4.11 4.11 0 01-.797-.078c.539 1.657 2.106 2.863 3.962 2.897A8.591 8.591 0 010 14.643a11.995 11.995 0 006.488 1.885c7.806 0 12.07-6.357 12.07-11.87 0-.182-.004-.362-.012-.539a8.543 8.543 0 002.114-2.16z" fill="#274C5B"/></g><defs><clipPath id="clip0_1_474"><path fill="#fff" d="M0 0h21v17H0z"/></clipPath></defs></svg>